<svg width="140" height="140" viewBox="0 0 140 140" fill="none" xmlns="http://www.w3.org/2000/svg">
<path fill-rule="evenodd" clip-rule="evenodd" d="M4.99902 2.5C4.99902 3.88071 3.87974 5 2.49902 5C1.11831 5 -0.000976562 3.88071 -0.000976562 2.5C-0.000976562 1.11929 1.11831 0 2.49902 0C3.87974 0 4.99902 1.11929 4.99902 2.5ZM17.499 5C18.8797 5 19.999 3.88071 19.999 2.5C19.999 1.11929 18.8797 0 17.499 0C16.1183 0 14.999 1.11929 14.999 2.5C14.999 3.88071 16.1183 5 17.499 5ZM34.999 2.5C34.999 3.88071 33.8797 5 32.499 5C31.1183 5 29.999 3.88071 29.999 2.5C29.999 1.11929 31.1183 0 32.499 0C33.8797 0 34.999 1.11929 34.999 2.5ZM47.499 5C48.8797 5 49.999 3.88071 49.999 2.5C49.999 1.11929 48.8797 0 47.499 0C46.1183 0 44.999 1.11929 44.999 2.5C44.999 3.88071 46.1183 5 47.499 5ZM64.999 2.5C64.999 3.88071 63.8797 5 62.499 5C61.1183 5 59.999 3.88071 59.999 2.5C59.999 1.11929 61.1183 0 62.499 0C63.8797 0 64.999 1.11929 64.999 2.5ZM77.499 5C78.8797 5 79.999 3.88071 79.999 2.5C79.999 1.11929 78.8797 0 77.499 0C76.1183 0 74.999 1.11929 74.999 2.5C74.999 3.88071 76.1183 5 77.499 5ZM94.999 2.5C94.999 3.88071 93.8797 5 92.499 5C91.1183 5 89.999 3.88071 89.999 2.5C89.999 1.11929 91.1183 0 92.499 0C93.8797 0 94.999 1.11929 94.999 2.5ZM107.499 5C108.88 5 109.999 3.88071 109.999 2.5C109.999 1.11929 108.88 0 107.499 0C106.118 0 104.999 1.11929 104.999 2.5C104.999 3.88071 106.118 5 107.499 5ZM124.999 2.5C124.999 3.88071 123.88 5 122.499 5C121.118 5 119.999 3.88071 119.999 2.5C119.999 1.11929 121.118 0 122.499 0C123.88 0 124.999 1.11929 124.999 2.5ZM139.999 2.5C139.999 3.88071 138.88 5 137.499 5C136.118 5 134.999 3.88071 134.999 2.5C134.999 1.11929 136.118 0 137.499 0C138.88 0 139.999 1.11929 139.999 2.5ZM137.499 20C138.88 20 139.999 18.8807 139.999 17.5C139.999 16.1193 138.88 15 137.499 15C136.118 15 134.999 16.1193 134.999 17.5C134.999 18.8807 136.118 20 137.499 20ZM124.999 17.5C124.999 18.8807 123.88 20 122.499 20C121.118 20 119.999 18.8807 119.999 17.5C119.999 16.1193 121.118 15 122.499 15C123.88 15 124.999 16.1193 124.999 17.5ZM107.499 20C108.88 20 109.999 18.8807 109.999 17.5C109.999 16.1193 108.88 15 107.499 15C106.118 15 104.999 16.1193 104.999 17.5C104.999 18.8807 106.118 20 107.499 20ZM94.999 17.5C94.999 18.8807 93.8797 20 92.499 20C91.1183 20 89.999 18.8807 89.999 17.5C89.999 16.1193 91.1183 15 92.499 15C93.8797 15 94.999 16.1193 94.999 17.5ZM77.499 20C78.8797 20 79.999 18.8807 79.999 17.5C79.999 16.1193 78.8797 15 77.499 15C76.1183 15 74.999 16.1193 74.999 17.5C74.999 18.8807 76.1183 20 77.499 20ZM64.999 17.5C64.999 18.8807 63.8797 20 62.499 20C61.1183 20 59.999 18.8807 59.999 17.5C59.999 16.1193 61.1183 15 62.499 15C63.8797 15 64.999 16.1193 64.999 17.5ZM47.499 20C48.8797 20 49.999 18.8807 49.999 17.5C49.999 16.1193 48.8797 15 47.499 15C46.1183 15 44.999 16.1193 44.999 17.5C44.999 18.8807 46.1183 20 47.499 20ZM34.999 17.5C34.999 18.8807 33.8797 20 32.499 20C31.1183 20 29.999 18.8807 29.999 17.5C29.999 16.1193 31.1183 15 32.499 15C33.8797 15 34.999 16.1193 34.999 17.5ZM17.499 20C18.8797 20 19.999 18.8807 19.999 17.5C19.999 16.1193 18.8797 15 17.499 15C16.1183 15 14.999 16.1193 14.999 17.5C14.999 18.8807 16.1183 20 17.499 20ZM4.99902 17.5C4.99902 18.8807 3.87974 20 2.49902 20C1.11831 20 -0.000976562 18.8807 -0.000976562 17.5C-0.000976562 16.1193 1.11831 15 2.49902 15C3.87974 15 4.99902 16.1193 4.99902 17.5ZM137.499 35C138.88 35 139.999 33.8807 139.999 32.5C139.999 31.1193 138.88 30 137.499 30C136.118 30 134.999 31.1193 134.999 32.5C134.999 33.8807 136.118 35 137.499 35ZM124.999 32.5C124.999 33.8807 123.88 35 122.499 35C121.118 35 119.999 33.8807 119.999 32.5C119.999 31.1193 121.118 30 122.499 30C123.88 30 124.999 31.1193 124.999 32.5ZM107.499 35C108.88 35 109.999 33.8807 109.999 32.5C109.999 31.1193 108.88 30 107.499 30C106.118 30 104.999 31.1193 104.999 32.5C104.999 33.8807 106.118 35 107.499 35ZM94.999 32.5C94.999 33.8807 93.8797 35 92.499 35C91.1183 35 89.999 33.8807 89.999 32.5C89.999 31.1193 91.1183 30 92.499 30C93.8797 30 94.999 31.1193 94.999 32.5ZM77.499 35C78.8797 35 79.999 33.8807 79.999 32.5C79.999 31.1193 78.8797 30 77.499 30C76.1183 30 74.999 31.1193 74.999 32.5C74.999 33.8807 76.1183 35 77.499 35ZM64.999 32.5C64.999 33.8807 63.8797 35 62.499 35C61.1183 35 59.999 33.8807 59.999 32.5C59.999 31.1193 61.1183 30 62.499 30C63.8797 30 64.999 31.1193 64.999 32.5ZM47.499 35C48.8797 35 49.999 33.8807 49.999 32.5C49.999 31.1193 48.8797 30 47.499 30C46.1183 30 44.999 31.1193 44.999 32.5C44.999 33.8807 46.1183 35 47.499 35ZM34.999 32.5C34.999 33.8807 33.8797 35 32.499 35C31.1183 35 29.999 33.8807 29.999 32.5C29.999 31.1193 31.1183 30 32.499 30C33.8797 30 34.999 31.1193 34.999 32.5ZM17.499 35C18.8797 35 19.999 33.8807 19.999 32.5C19.999 31.1193 18.8797 30 17.499 30C16.1183 30 14.999 31.1193 14.999 32.5C14.999 33.8807 16.1183 35 17.499 35ZM4.99902 32.5C4.99902 33.8807 3.87974 35 2.49902 35C1.11831 35 -0.000976562 33.8807 -0.000976562 32.5C-0.000976562 31.1193 1.11831 30 2.49902 30C3.87974 30 4.99902 31.1193 4.99902 32.5ZM137.499 50C138.88 50 139.999 48.8807 139.999 47.5C139.999 46.1193 138.88 45 137.499 45C136.118 45 134.999 46.1193 134.999 47.5C134.999 48.8807 136.118 50 137.499 50ZM124.999 47.5C124.999 48.8807 123.88 50 122.499 50C121.118 50 119.999 48.8807 119.999 47.5C119.999 46.1193 121.118 45 122.499 45C123.88 45 124.999 46.1193 124.999 47.5ZM107.499 50C108.88 50 109.999 48.8807 109.999 47.5C109.999 46.1193 108.88 45 107.499 45C106.118 45 104.999 46.1193 104.999 47.5C104.999 48.8807 106.118 50 107.499 50ZM94.999 47.5C94.999 48.8807 93.8797 50 92.499 50C91.1183 50 89.999 48.8807 89.999 47.5C89.999 46.1193 91.1183 45 92.499 45C93.8797 45 94.999 46.1193 94.999 47.5ZM77.499 50C78.8797 50 79.999 48.8807 79.999 47.5C79.999 46.1193 78.8797 45 77.499 45C76.1183 45 74.999 46.1193 74.999 47.5C74.999 48.8807 76.1183 50 77.499 50ZM64.999 47.5C64.999 48.8807 63.8797 50 62.499 50C61.1183 50 59.999 48.8807 59.999 47.5C59.999 46.1193 61.1183 45 62.499 45C63.8797 45 64.999 46.1193 64.999 47.5ZM47.499 50C48.8797 50 49.999 48.8807 49.999 47.5C49.999 46.1193 48.8797 45 47.499 45C46.1183 45 44.999 46.1193 44.999 47.5C44.999 48.8807 46.1183 50 47.499 50ZM34.999 47.5C34.999 48.8807 33.8797 50 32.499 50C31.1183 50 29.999 48.8807 29.999 47.5C29.999 46.1193 31.1183 45 32.499 45C33.8797 45 34.999 46.1193 34.999 47.5ZM17.499 50C18.8797 50 19.999 48.8807 19.999 47.5C19.999 46.1193 18.8797 45 17.499 45C16.1183 45 14.999 46.1193 14.999 47.5C14.999 48.8807 16.1183 50 17.499 50ZM4.99902 47.5C4.99902 48.8807 3.87974 50 2.49902 50C1.11831 50 -0.000976562 48.8807 -0.000976562 47.5C-0.000976562 46.1193 1.11831 45 2.49902 45C3.87974 45 4.99902 46.1193 4.99902 47.5ZM137.499 65C138.88 65 139.999 63.8807 139.999 62.5C139.999 61.1193 138.88 60 137.499 60C136.118 60 134.999 61.1193 134.999 62.5C134.999 63.8807 136.118 65 137.499 65ZM124.999 62.5C124.999 63.8807 123.88 65 122.499 65C121.118 65 119.999 63.8807 119.999 62.5C119.999 61.1193 121.118 60 122.499 60C123.88 60 124.999 61.1193 124.999 62.5ZM107.499 65C108.88 65 109.999 63.8807 109.999 62.5C109.999 61.1193 108.88 60 107.499 60C106.118 60 104.999 61.1193 104.999 62.5C104.999 63.8807 106.118 65 107.499 65ZM94.999 62.5C94.999 63.8807 93.8797 65 92.499 65C91.1183 65 89.999 63.8807 89.999 62.5C89.999 61.1193 91.1183 60 92.499 60C93.8797 60 94.999 61.1193 94.999 62.5ZM77.499 65C78.8797 65 79.999 63.8807 79.999 62.5C79.999 61.1193 78.8797 60 77.499 60C76.1183 60 74.999 61.1193 74.999 62.5C74.999 63.8807 76.1183 65 77.499 65ZM64.999 62.5C64.999 63.8807 63.8797 65 62.499 65C61.1183 65 59.999 63.8807 59.999 62.5C59.999 61.1193 61.1183 60 62.499 60C63.8797 60 64.999 61.1193 64.999 62.5ZM47.499 65C48.8797 65 49.999 63.8807 49.999 62.5C49.999 61.1193 48.8797 60 47.499 60C46.1183 60 44.999 61.1193 44.999 62.5C44.999 63.8807 46.1183 65 47.499 65ZM34.999 62.5C34.999 63.8807 33.8797 65 32.499 65C31.1183 65 29.999 63.8807 29.999 62.5C29.999 61.1193 31.1183 60 32.499 60C33.8797 60 34.999 61.1193 34.999 62.5ZM17.499 65C18.8797 65 19.999 63.8807 19.999 62.5C19.999 61.1193 18.8797 60 17.499 60C16.1183 60 14.999 61.1193 14.999 62.5C14.999 63.8807 16.1183 65 17.499 65ZM4.99902 62.5C4.99902 63.8807 3.87974 65 2.49902 65C1.11831 65 -0.000976562 63.8807 -0.000976562 62.5C-0.000976562 61.1193 1.11831 60 2.49902 60C3.87974 60 4.99902 61.1193 4.99902 62.5ZM137.499 80C138.88 80 139.999 78.8807 139.999 77.5C139.999 76.1193 138.88 75 137.499 75C136.118 75 134.999 76.1193 134.999 77.5C134.999 78.8807 136.118 80 137.499 80ZM124.999 77.5C124.999 78.8807 123.88 80 122.499 80C121.118 80 119.999 78.8807 119.999 77.5C119.999 76.1193 121.118 75 122.499 75C123.88 75 124.999 76.1193 124.999 77.5ZM107.499 80C108.88 80 109.999 78.8807 109.999 77.5C109.999 76.1193 108.88 75 107.499 75C106.118 75 104.999 76.1193 104.999 77.5C104.999 78.8807 106.118 80 107.499 80ZM94.999 77.5C94.999 78.8807 93.8797 80 92.499 80C91.1183 80 89.999 78.8807 89.999 77.5C89.999 76.1193 91.1183 75 92.499 75C93.8797 75 94.999 76.1193 94.999 77.5ZM77.499 80C78.8797 80 79.999 78.8807 79.999 77.5C79.999 76.1193 78.8797 75 77.499 75C76.1183 75 74.999 76.1193 74.999 77.5C74.999 78.8807 76.1183 80 77.499 80ZM64.999 77.5C64.999 78.8807 63.8797 80 62.499 80C61.1183 80 59.999 78.8807 59.999 77.5C59.999 76.1193 61.1183 75 62.499 75C63.8797 75 64.999 76.1193 64.999 77.5ZM47.499 80C48.8797 80 49.999 78.8807 49.999 77.5C49.999 76.1193 48.8797 75 47.499 75C46.1183 75 44.999 76.1193 44.999 77.5C44.999 78.8807 46.1183 80 47.499 80ZM34.999 77.5C34.999 78.8807 33.8797 80 32.499 80C31.1183 80 29.999 78.8807 29.999 77.5C29.999 76.1193 31.1183 75 32.499 75C33.8797 75 34.999 76.1193 34.999 77.5ZM17.499 80C18.8797 80 19.999 78.8807 19.999 77.5C19.999 76.1193 18.8797 75 17.499 75C16.1183 75 14.999 76.1193 14.999 77.5C14.999 78.8807 16.1183 80 17.499 80ZM4.99902 77.5C4.99902 78.8807 3.87974 80 2.49902 80C1.11831 80 -0.000976562 78.8807 -0.000976562 77.5C-0.000976562 76.1193 1.11831 75 2.49902 75C3.87974 75 4.99902 76.1193 4.99902 77.5ZM137.499 95C138.88 95 139.999 93.8807 139.999 92.5C139.999 91.1193 138.88 90 137.499 90C136.118 90 134.999 91.1193 134.999 92.5C134.999 93.8807 136.118 95 137.499 95ZM124.999 92.5C124.999 93.8807 123.88 95 122.499 95C121.118 95 119.999 93.8807 119.999 92.5C119.999 91.1193 121.118 90 122.499 90C123.88 90 124.999 91.1193 124.999 92.5ZM107.499 95C108.88 95 109.999 93.8807 109.999 92.5C109.999 91.1193 108.88 90 107.499 90C106.118 90 104.999 91.1193 104.999 92.5C104.999 93.8807 106.118 95 107.499 95ZM94.999 92.5C94.999 93.8807 93.8797 95 92.499 95C91.1183 95 89.999 93.8807 89.999 92.5C89.999 91.1193 91.1183 90 92.499 90C93.8797 90 94.999 91.1193 94.999 92.5ZM77.499 95C78.8797 95 79.999 93.8807 79.999 92.5C79.999 91.1193 78.8797 90 77.499 90C76.1183 90 74.999 91.1193 74.999 92.5C74.999 93.8807 76.1183 95 77.499 95ZM64.999 92.5C64.999 93.8807 63.8797 95 62.499 95C61.1183 95 59.999 93.8807 59.999 92.5C59.999 91.1193 61.1183 90 62.499 90C63.8797 90 64.999 91.1193 64.999 92.5ZM47.499 95C48.8797 95 49.999 93.8807 49.999 92.5C49.999 91.1193 48.8797 90 47.499 90C46.1183 90 44.999 91.1193 44.999 92.5C44.999 93.8807 46.1183 95 47.499 95ZM34.999 92.5C34.999 93.8807 33.8797 95 32.499 95C31.1183 95 29.999 93.8807 29.999 92.5C29.999 91.1193 31.1183 90 32.499 90C33.8797 90 34.999 91.1193 34.999 92.5ZM17.499 95C18.8797 95 19.999 93.8807 19.999 92.5C19.999 91.1193 18.8797 90 17.499 90C16.1183 90 14.999 91.1193 14.999 92.5C14.999 93.8807 16.1183 95 17.499 95ZM4.99902 92.5C4.99902 93.8807 3.87974 95 2.49902 95C1.11831 95 -0.000976562 93.8807 -0.000976562 92.5C-0.000976562 91.1193 1.11831 90 2.49902 90C3.87974 90 4.99902 91.1193 4.99902 92.5ZM137.499 110C138.88 110 139.999 108.881 139.999 107.5C139.999 106.119 138.88 105 137.499 105C136.118 105 134.999 106.119 134.999 107.5C134.999 108.881 136.118 110 137.499 110ZM124.999 107.5C124.999 108.881 123.88 110 122.499 110C121.118 110 119.999 108.881 119.999 107.5C119.999 106.119 121.118 105 122.499 105C123.88 105 124.999 106.119 124.999 107.5ZM107.499 110C108.88 110 109.999 108.881 109.999 107.5C109.999 106.119 108.88 105 107.499 105C106.118 105 104.999 106.119 104.999 107.5C104.999 108.881 106.118 110 107.499 110ZM94.999 107.5C94.999 108.881 93.8797 110 92.499 110C91.1183 110 89.999 108.881 89.999 107.5C89.999 106.119 91.1183 105 92.499 105C93.8797 105 94.999 106.119 94.999 107.5ZM77.499 110C78.8797 110 79.999 108.881 79.999 107.5C79.999 106.119 78.8797 105 77.499 105C76.1183 105 74.999 106.119 74.999 107.5C74.999 108.881 76.1183 110 77.499 110ZM64.999 107.5C64.999 108.881 63.8797 110 62.499 110C61.1183 110 59.999 108.881 59.999 107.5C59.999 106.119 61.1183 105 62.499 105C63.8797 105 64.999 106.119 64.999 107.5ZM47.499 110C48.8797 110 49.999 108.881 49.999 107.5C49.999 106.119 48.8797 105 47.499 105C46.1183 105 44.999 106.119 44.999 107.5C44.999 108.881 46.1183 110 47.499 110ZM34.999 107.5C34.999 108.881 33.8797 110 32.499 110C31.1183 110 29.999 108.881 29.999 107.5C29.999 106.119 31.1183 105 32.499 105C33.8797 105 34.999 106.119 34.999 107.5ZM17.499 110C18.8797 110 19.999 108.881 19.999 107.5C19.999 106.119 18.8797 105 17.499 105C16.1183 105 14.999 106.119 14.999 107.5C14.999 108.881 16.1183 110 17.499 110ZM4.99902 107.5C4.99902 108.881 3.87974 110 2.49902 110C1.11831 110 -0.000976562 108.881 -0.000976562 107.5C-0.000976562 106.119 1.11831 105 2.49902 105C3.87974 105 4.99902 106.119 4.99902 107.5ZM137.499 125C138.88 125 139.999 123.881 139.999 122.5C139.999 121.119 138.88 120 137.499 120C136.118 120 134.999 121.119 134.999 122.5C134.999 123.881 136.118 125 137.499 125ZM124.999 122.5C124.999 123.881 123.88 125 122.499 125C121.118 125 119.999 123.881 119.999 122.5C119.999 121.119 121.118 120 122.499 120C123.88 120 124.999 121.119 124.999 122.5ZM107.499 125C108.88 125 109.999 123.881 109.999 122.5C109.999 121.119 108.88 120 107.499 120C106.118 120 104.999 121.119 104.999 122.5C104.999 123.881 106.118 125 107.499 125ZM94.999 122.5C94.999 123.881 93.8797 125 92.499 125C91.1183 125 89.999 123.881 89.999 122.5C89.999 121.119 91.1183 120 92.499 120C93.8797 120 94.999 121.119 94.999 122.5ZM77.499 125C78.8797 125 79.999 123.881 79.999 122.5C79.999 121.119 78.8797 120 77.499 120C76.1183 120 74.999 121.119 74.999 122.5C74.999 123.881 76.1183 125 77.499 125ZM64.999 122.5C64.999 123.881 63.8797 125 62.499 125C61.1183 125 59.999 123.881 59.999 122.5C59.999 121.119 61.1183 120 62.499 120C63.8797 120 64.999 121.119 64.999 122.5ZM47.499 125C48.8797 125 49.999 123.881 49.999 122.5C49.999 121.119 48.8797 120 47.499 120C46.1183 120 44.999 121.119 44.999 122.5C44.999 123.881 46.1183 125 47.499 125ZM34.999 122.5C34.999 123.881 33.8797 125 32.499 125C31.1183 125 29.999 123.881 29.999 122.5C29.999 121.119 31.1183 120 32.499 120C33.8797 120 34.999 121.119 34.999 122.5ZM17.499 125C18.8797 125 19.999 123.881 19.999 122.5C19.999 121.119 18.8797 120 17.499 120C16.1183 120 14.999 121.119 14.999 122.5C14.999 123.881 16.1183 125 17.499 125ZM4.99902 122.5C4.99902 123.881 3.87974 125 2.49902 125C1.11831 125 -0.000976562 123.881 -0.000976562 122.5C-0.000976562 121.119 1.11831 120 2.49902 120C3.87974 120 4.99902 121.119 4.99902 122.5ZM137.499 140C138.88 140 139.999 138.881 139.999 137.5C139.999 136.119 138.88 135 137.499 135C136.118 135 134.999 136.119 134.999 137.5C134.999 138.881 136.118 140 137.499 140ZM124.999 137.5C124.999 138.881 123.88 140 122.499 140C121.118 140 119.999 138.881 119.999 137.5C119.999 136.119 121.118 135 122.499 135C123.88 135 124.999 136.119 124.999 137.5ZM107.499 140C108.88 140 109.999 138.881 109.999 137.5C109.999 136.119 108.88 135 107.499 135C106.118 135 104.999 136.119 104.999 137.5C104.999 138.881 106.118 140 107.499 140ZM94.999 137.5C94.999 138.881 93.8797 140 92.499 140C91.1183 140 89.999 138.881 89.999 137.5C89.999 136.119 91.1183 135 92.499 135C93.8797 135 94.999 136.119 94.999 137.5ZM77.499 140C78.8797 140 79.999 138.881 79.999 137.5C79.999 136.119 78.8797 135 77.499 135C76.1183 135 74.999 136.119 74.999 137.5C74.999 138.881 76.1183 140 77.499 140ZM64.999 137.5C64.999 138.881 63.8797 140 62.499 140C61.1183 140 59.999 138.881 59.999 137.5C59.999 136.119 61.1183 135 62.499 135C63.8797 135 64.999 136.119 64.999 137.5ZM47.499 140C48.8797 140 49.999 138.881 49.999 137.5C49.999 136.119 48.8797 135 47.499 135C46.1183 135 44.999 136.119 44.999 137.5C44.999 138.881 46.1183 140 47.499 140ZM34.999 137.5C34.999 138.881 33.8797 140 32.499 140C31.1183 140 29.999 138.881 29.999 137.5C29.999 136.119 31.1183 135 32.499 135C33.8797 135 34.999 136.119 34.999 137.5ZM17.499 140C18.8797 140 19.999 138.881 19.999 137.5C19.999 136.119 18.8797 135 17.499 135C16.1183 135 14.999 136.119 14.999 137.5C14.999 138.881 16.1183 140 17.499 140ZM4.99902 137.5C4.99902 138.881 3.87974 140 2.49902 140C1.11831 140 -0.000976562 138.881 -0.000976562 137.5C-0.000976562 136.119 1.11831 135 2.49902 135C3.87974 135 4.99902 136.119 4.99902 137.5Z" fill="#00A578"/>
</svg>
