<svg width="146" height="15" viewBox="0 0 146 15" fill="none" xmlns="http://www.w3.org/2000/svg">
<path d="M76.5594 3.50572H78.6342V1.67813C77.6296 1.62373 76.6202 1.59688 75.6102 1.59767C72.6083 1.59767 70.5555 2.5517 70.5555 4.29882V5.80457H67.1672V7.85054H70.5555V13.0919H74.6169V7.85054H77.9941L78.5018 5.80457H74.6169V4.49997C74.6169 3.89652 74.926 3.50572 76.5594 3.50572Z" fill="#C9CADA"/>
<path d="M19.5885 5.62C18.6005 5.61979 17.6277 5.74705 16.7572 5.99042C16.6777 5.88147 16.5365 5.78769 16.3523 5.72152C16.168 5.65536 15.9495 5.61995 15.7257 5.62H11.3111C11.1661 5.61996 11.0226 5.6348 10.8886 5.66366C10.7547 5.69253 10.633 5.73486 10.5305 5.78824C10.428 5.84161 10.3467 5.90499 10.2913 5.97473C10.2358 6.04448 10.2073 6.11923 10.2074 6.19472V13.0913C10.2073 13.1668 10.2358 13.2415 10.2913 13.3112C10.3467 13.381 10.428 13.4444 10.5305 13.4977C10.633 13.5511 10.7547 13.5935 10.8886 13.6223C11.0226 13.6512 11.1661 13.666 11.3111 13.666H15.7257C15.8707 13.666 16.0142 13.6512 16.1482 13.6223C16.2821 13.5935 16.4038 13.5511 16.5063 13.4977C16.6088 13.4444 16.6901 13.381 16.7455 13.3112C16.801 13.2415 16.8295 13.1668 16.8294 13.0913V9.93035C16.8294 9.77792 16.9457 9.63174 17.1526 9.52396C17.3596 9.41619 17.6403 9.35564 17.933 9.35564C18.2257 9.35564 18.5065 9.41619 18.7134 9.52396C18.9204 9.63174 19.0367 9.77792 19.0367 9.93035V13.0913C19.0366 13.1668 19.0651 13.2415 19.1205 13.3112C19.176 13.381 19.2573 13.4444 19.3598 13.4977C19.4623 13.5511 19.584 13.5935 19.7179 13.6223C19.8518 13.6512 19.9954 13.666 20.1404 13.666H24.555C24.6999 13.666 24.8435 13.6512 24.9774 13.6223C25.1114 13.5935 25.2331 13.5511 25.3356 13.4977C25.4381 13.4444 25.5194 13.381 25.5748 13.3112C25.6302 13.2415 25.6587 13.1668 25.6586 13.0913V8.78092C25.6566 7.94291 25.0165 7.13953 23.8785 6.54697C22.7406 5.95441 21.1978 5.62105 19.5885 5.62ZM23.4513 12.5166H21.244V9.93035C21.244 9.47308 20.8952 9.03454 20.2743 8.7112C19.6533 8.38786 18.8112 8.20621 17.933 8.20621C17.0549 8.20621 16.2128 8.38786 15.5918 8.7112C14.9709 9.03454 14.6221 9.47308 14.6221 9.93035V12.5166H12.4147V6.76943H14.6221V7.17353C14.6222 7.29261 14.6933 7.40873 14.8256 7.50586C14.9579 7.60298 15.1449 7.67632 15.3607 7.71575C15.5764 7.75518 15.8104 7.75874 16.0303 7.72596C16.2501 7.69317 16.445 7.62565 16.588 7.53272C17.0832 7.20516 17.7626 6.96631 18.5312 6.84953C19.2998 6.73275 20.1192 6.74387 20.8751 6.88133C21.631 7.0188 22.2855 7.27574 22.7474 7.6163C23.2092 7.95685 23.4553 8.36401 23.4513 8.78092V12.5166ZM8.00011 5.62H3.58548C3.44052 5.61996 3.29697 5.6348 3.16303 5.66366C3.02909 5.69253 2.90739 5.73486 2.80489 5.78824C2.70239 5.84161 2.6211 5.90499 2.56566 5.97473C2.51023 6.04448 2.48174 6.11923 2.48182 6.19472V13.0913C2.48174 13.1668 2.51022 13.2415 2.56566 13.3112C2.62109 13.381 2.70239 13.4444 2.80489 13.4977C2.90739 13.5511 3.02909 13.5935 3.16303 13.6223C3.29697 13.6512 3.44052 13.666 3.58548 13.666H8.00011C8.14507 13.666 8.28862 13.6512 8.42256 13.6223C8.5565 13.5935 8.6782 13.5511 8.7807 13.4977C8.8832 13.4444 8.9645 13.381 9.01993 13.3112C9.07536 13.2415 9.10385 13.1668 9.10377 13.0913V6.19472C9.10385 6.11923 9.07536 6.04448 9.01993 5.97473C8.96449 5.90499 8.8832 5.84161 8.7807 5.78824C8.6782 5.73486 8.5565 5.69253 8.42256 5.66366C8.28862 5.6348 8.14507 5.61996 8.00011 5.62ZM6.89645 12.5166H4.68914V6.76943H6.89645V12.5166ZM5.80896 1.33437C5.32596 1.31932 4.84212 1.35558 4.38687 1.44095C3.93163 1.52632 3.51448 1.65902 3.16081 1.83098C2.80714 2.00294 2.52433 2.21056 2.32958 2.44121C2.13483 2.67187 2.03221 2.92075 2.02797 3.1727C2.02372 3.42466 2.11794 3.67443 2.30489 3.90683C2.49183 4.13924 2.7676 4.34941 3.11543 4.52457C3.46325 4.69973 3.87586 4.83622 4.32816 4.92574C4.78046 5.01526 5.263 5.05593 5.74644 5.04529H5.7777C6.26198 5.06027 6.74704 5.02367 7.20324 4.93774C7.65945 4.8518 8.07721 4.71832 8.431 4.54547C8.7848 4.37262 9.06719 4.16401 9.26094 3.93241C9.45468 3.7008 9.55571 3.45106 9.55783 3.19843C9.55996 2.94581 9.46315 2.69561 9.27331 2.46313C9.08348 2.23065 8.80461 2.02076 8.45374 1.8463C8.10287 1.67183 7.68737 1.53646 7.23263 1.44844C6.77789 1.36042 6.29347 1.32161 5.80895 1.33437H5.80896ZM5.77771 3.89587H5.74644C5.55558 3.90794 5.36197 3.89861 5.1786 3.86853C4.99522 3.83844 4.82632 3.78828 4.68322 3.72142C4.54012 3.65456 4.42613 3.57254 4.34889 3.48085C4.27166 3.38917 4.23296 3.28995 4.23539 3.18984C4.23539 2.76105 4.85296 2.48379 5.80896 2.48379C6.00177 2.47041 6.19785 2.4787 6.38399 2.50809C6.57013 2.53749 6.74201 2.58732 6.88805 2.65423C7.03409 2.72113 7.15091 2.80355 7.23063 2.89594C7.31035 2.98834 7.35112 3.08855 7.3502 3.18984C7.3502 3.61863 6.73263 3.89587 5.77771 3.89587Z" fill="#C9CADA"/>
<path d="M143.75 3.78168C142.92 3.96909 142.043 4.09298 141.145 4.14949C142.092 3.85485 142.802 3.39132 143.143 2.8449C142.253 3.1208 141.279 3.31518 140.262 3.41961C139.583 3.03603 138.679 2.7807 137.691 2.69366C136.703 2.60663 135.687 2.6928 134.803 2.93868C133.92 3.18456 133.218 3.57624 132.807 4.05227C132.397 4.52831 132.302 5.06179 132.537 5.56903C130.737 5.52164 128.977 5.27763 127.37 4.85286C125.763 4.4281 124.346 3.83208 123.211 3.10352C122.813 3.46568 122.603 3.87583 122.604 4.29317C122.602 4.68075 122.785 5.06249 123.136 5.40442C123.486 5.74634 123.993 6.03783 124.612 6.25294C123.893 6.24275 123.189 6.14219 122.56 5.95984V5.98857C122.565 6.53161 122.931 7.05702 123.594 7.47591C124.258 7.8948 125.179 8.18147 126.202 8.28742C125.808 8.34982 125.399 8.38272 124.988 8.38513C124.703 8.38339 124.419 8.36994 124.138 8.34489C124.429 8.81203 124.993 9.22027 125.75 9.5128C126.508 9.80534 127.422 9.96763 128.365 9.97708C126.773 10.6295 124.807 10.9856 122.78 10.9886C122.412 10.9892 122.043 10.9777 121.677 10.9541C123.745 11.6496 126.156 12.0189 128.619 12.0173C130.318 12.0265 132.004 11.8593 133.578 11.5254C135.151 11.1915 136.582 10.6977 137.785 10.0728C138.988 9.44783 139.94 8.70431 140.585 7.88565C141.23 7.06698 141.556 6.18957 141.543 5.30467C141.543 5.20697 141.543 5.10352 141.543 5.00007C142.409 4.66375 143.156 4.25146 143.75 3.78168Z" fill="#1890FF"/>
</svg>
