<svg width="146" height="15" viewBox="0 0 146 15" fill="none" xmlns="http://www.w3.org/2000/svg">
<path d="M76.5591 3.50572H78.634V1.67813C77.6294 1.62373 76.62 1.59688 75.61 1.59767C72.608 1.59767 70.5552 2.5517 70.5552 4.29882V5.80457H67.167V7.85054H70.5552V13.0919H74.6167V7.85054H77.9939L78.5016 5.80457H74.6167V4.49997C74.6167 3.89652 74.9257 3.50572 76.5591 3.50572Z" fill="#C9CADA"/>
<path d="M19.588 5.62C18.6 5.61979 17.6272 5.74705 16.7567 5.99042C16.6772 5.88147 16.536 5.78769 16.3518 5.72152C16.1676 5.65536 15.949 5.61995 15.7252 5.62H11.3106C11.1656 5.61996 11.0221 5.6348 10.8881 5.66366C10.7542 5.69253 10.6325 5.73486 10.53 5.78824C10.4275 5.84161 10.3462 5.90499 10.2908 5.97473C10.2353 6.04448 10.2069 6.11923 10.2069 6.19472V13.0913C10.2069 13.1668 10.2353 13.2415 10.2908 13.3112C10.3462 13.381 10.4275 13.4444 10.53 13.4977C10.6325 13.5511 10.7542 13.5935 10.8881 13.6223C11.0221 13.6512 11.1656 13.666 11.3106 13.666H15.7252C15.8702 13.666 16.0137 13.6512 16.1477 13.6223C16.2816 13.5935 16.4033 13.5511 16.5058 13.4977C16.6083 13.4444 16.6896 13.381 16.7451 13.3112C16.8005 13.2415 16.829 13.1668 16.8289 13.0913V9.93035C16.8289 9.77792 16.9452 9.63174 17.1521 9.52396C17.3591 9.41619 17.6398 9.35564 17.9325 9.35564C18.2253 9.35564 18.506 9.41619 18.713 9.52396C18.9199 9.63174 19.0362 9.77792 19.0362 9.93035V13.0913C19.0361 13.1668 19.0646 13.2415 19.12 13.3112C19.1755 13.381 19.2568 13.4444 19.3593 13.4977C19.4618 13.5511 19.5835 13.5935 19.7174 13.6223C19.8514 13.6512 19.9949 13.666 20.1399 13.666H24.5545C24.6995 13.666 24.843 13.6512 24.977 13.6223C25.1109 13.5935 25.2326 13.5511 25.3351 13.4977C25.4376 13.4444 25.5189 13.381 25.5743 13.3112C25.6298 13.2415 25.6582 13.1668 25.6582 13.0913V8.78092C25.6562 7.94291 25.016 7.13953 23.8781 6.54697C22.7401 5.95441 21.1973 5.62105 19.588 5.62ZM23.4508 12.5166H21.2435V9.93035C21.2435 9.47308 20.8947 9.03454 20.2738 8.7112C19.6528 8.38786 18.8107 8.20621 17.9325 8.20621C17.0544 8.20621 16.2123 8.38786 15.5913 8.7112C14.9704 9.03454 14.6216 9.47308 14.6216 9.93035V12.5166H12.4143V6.76943H14.6216V7.17353C14.6217 7.29261 14.6928 7.40873 14.8251 7.50586C14.9574 7.60298 15.1444 7.67632 15.3602 7.71575C15.576 7.75518 15.8099 7.75874 16.0298 7.72596C16.2496 7.69317 16.4445 7.62565 16.5875 7.53272C17.0828 7.20516 17.7621 6.96631 18.5307 6.84953C19.2993 6.73275 20.1187 6.74387 20.8746 6.88133C21.6305 7.0188 22.285 7.27574 22.7469 7.6163C23.2087 7.95685 23.4549 8.36401 23.4508 8.78092V12.5166ZM7.99962 5.62H3.58499C3.44003 5.61996 3.29648 5.6348 3.16254 5.66366C3.0286 5.69253 2.9069 5.73486 2.8044 5.78824C2.7019 5.84161 2.62061 5.90499 2.56517 5.97473C2.50974 6.04448 2.48125 6.11923 2.48133 6.19472V13.0913C2.48125 13.1668 2.50974 13.2415 2.56517 13.3112C2.62061 13.381 2.7019 13.4444 2.8044 13.4977C2.9069 13.5511 3.0286 13.5935 3.16254 13.6223C3.29648 13.6512 3.44003 13.666 3.58499 13.666H7.99962C8.14458 13.666 8.28813 13.6512 8.42207 13.6223C8.55601 13.5935 8.67771 13.5511 8.78022 13.4977C8.88272 13.4444 8.96401 13.381 9.01944 13.3112C9.07488 13.2415 9.10337 13.1668 9.10328 13.0913V6.19472C9.10336 6.11923 9.07487 6.04448 9.01944 5.97473C8.964 5.90499 8.88271 5.84161 8.78021 5.78824C8.67771 5.73486 8.55601 5.69253 8.42207 5.66366C8.28813 5.6348 8.14458 5.61996 7.99962 5.62ZM6.89597 12.5166H4.68865V6.76943H6.89597V12.5166ZM5.80848 1.33437C5.32547 1.31932 4.84163 1.35558 4.38639 1.44095C3.93114 1.52632 3.51399 1.65902 3.16032 1.83098C2.80665 2.00294 2.52384 2.21056 2.32909 2.44121C2.13434 2.67187 2.03173 2.92075 2.02748 3.1727C2.02324 3.42466 2.11745 3.67443 2.3044 3.90683C2.49134 4.13924 2.76711 4.34941 3.11494 4.52457C3.46276 4.69973 3.87537 4.83622 4.32767 4.92574C4.77997 5.01526 5.26252 5.05593 5.74595 5.04529H5.77721C6.26149 5.06027 6.74655 5.02367 7.20275 4.93774C7.65896 4.8518 8.07672 4.71832 8.43051 4.54547C8.78431 4.37262 9.06671 4.16401 9.26045 3.93241C9.4542 3.7008 9.55522 3.45106 9.55735 3.19843C9.55947 2.94581 9.46266 2.69561 9.27283 2.46313C9.08299 2.23065 8.80412 2.02076 8.45325 1.8463C8.10238 1.67183 7.68688 1.53646 7.23214 1.44844C6.77741 1.36042 6.29298 1.32161 5.80846 1.33437H5.80848ZM5.77722 3.89587H5.74595C5.55509 3.90794 5.36149 3.89861 5.17811 3.86853C4.99474 3.83844 4.82584 3.78828 4.68274 3.72142C4.53964 3.65456 4.42564 3.57254 4.34841 3.48085C4.27117 3.38917 4.23247 3.28995 4.2349 3.18984C4.2349 2.76105 4.85248 2.48379 5.80848 2.48379C6.00128 2.47041 6.19736 2.4787 6.3835 2.50809C6.56964 2.53749 6.74152 2.58732 6.88756 2.65423C7.0336 2.72113 7.15042 2.80355 7.23014 2.89594C7.30986 2.98834 7.35063 3.08855 7.34971 3.18984C7.34971 3.61863 6.73214 3.89587 5.77722 3.89587Z" fill="#C9CADA"/>
<path d="M143.75 3.78168C142.92 3.96909 142.043 4.09298 141.145 4.14949C142.092 3.85485 142.802 3.39132 143.143 2.8449C142.253 3.1208 141.279 3.31518 140.262 3.41961C139.583 3.03603 138.679 2.7807 137.691 2.69366C136.703 2.60663 135.687 2.6928 134.803 2.93868C133.92 3.18456 133.218 3.57624 132.807 4.05227C132.397 4.52831 132.302 5.06179 132.537 5.56903C130.737 5.52164 128.977 5.27763 127.37 4.85286C125.763 4.4281 124.346 3.83208 123.211 3.10352C122.813 3.46568 122.603 3.87583 122.604 4.29317C122.602 4.68075 122.785 5.06249 123.136 5.40442C123.486 5.74634 123.993 6.03783 124.612 6.25294C123.893 6.24275 123.189 6.14219 122.56 5.95984V5.98857C122.565 6.53161 122.931 7.05702 123.594 7.47591C124.258 7.8948 125.179 8.18147 126.202 8.28742C125.808 8.34982 125.399 8.38272 124.988 8.38513C124.703 8.38339 124.419 8.36994 124.138 8.34489C124.429 8.81203 124.993 9.22027 125.75 9.5128C126.508 9.80534 127.422 9.96763 128.365 9.97708C126.773 10.6295 124.807 10.9856 122.78 10.9886C122.412 10.9892 122.043 10.9777 121.677 10.9541C123.745 11.6496 126.156 12.0189 128.619 12.0173C130.318 12.0265 132.004 11.8593 133.578 11.5254C135.151 11.1915 136.582 10.6977 137.785 10.0728C138.988 9.44783 139.94 8.70431 140.585 7.88565C141.23 7.06698 141.556 6.18957 141.543 5.30467C141.543 5.20697 141.543 5.10352 141.543 5.00007C142.409 4.66375 143.156 4.25146 143.75 3.78168Z" fill="#1890FF"/>
</svg>
