<svg width="18" height="18" viewBox="0 0 18 18" fill="none" xmlns="http://www.w3.org/2000/svg">
<path d="M16.0706 1.93372C15.6956 1.55047 15.1406 1.40872 14.6231 1.55872L2.55557 5.04547C2.00957 5.19697 1.62257 5.62972 1.51832 6.17872C1.41182 6.73822 1.78382 7.44922 2.26982 7.74622L6.04307 10.0502C6.43007 10.2872 6.92956 10.228 7.24981 9.90697L11.5706 5.58622C11.7881 5.36047 12.1481 5.36047 12.3656 5.58622C12.5831 5.80297 12.5831 6.15622 12.3656 6.38122L8.03732 10.702C7.71632 11.023 7.65632 11.521 7.89257 11.9087L10.1981 15.6962C10.4681 16.1455 10.9331 16.4012 11.4431 16.4012C11.5031 16.4012 11.5706 16.4012 11.6306 16.393C12.2156 16.3187 12.6806 15.9205 12.8531 15.358L16.4306 3.38122C16.5881 2.87122 16.4456 2.31622 16.0706 1.93372Z" fill="white"/>
</svg>
