<svg width="18" height="18" viewBox="0 0 18 18" fill="none" xmlns="http://www.w3.org/2000/svg">
<path d="M16.0706 1.93372C15.6956 1.55047 15.1406 1.40872 14.6231 1.55872L2.55557 5.04547C2.00957 5.19697 1.62257 5.62972 1.51832 6.17872C1.41182 6.73822 1.78382 7.44922 2.26982 7.74622L6.04307 10.0502C6.43007 10.2872 6.92956 10.228 7.24981 9.90697L11.5706 5.58622C11.7881 5.36047 12.1481 5.36047 12.3656 5.58622C12.5831 5.80297 12.5831 6.15622 12.3656 6.38122L8.03732 10.702C7.71632 11.023 7.65632 11.521 7.89257 11.9087L10.1981 15.6962C10.4681 16.1455 10.9331 16.4012 11.4431 16.4012C11.5031 16.4012 11.5706 16.4012 11.6306 16.393C12.2156 16.3187 12.6806 15.9205 12.8531 15.358L16.4306 3.38122C16.5881 2.87122 16.4456 2.31622 16.0706 1.93372Z" fill="white"/>
<path opacity="0.4" fill-rule="evenodd" clip-rule="evenodd" d="M2.25762 12.6058C2.11363 12.6058 1.96962 12.551 1.86013 12.4408C1.64037 12.221 1.64037 11.8655 1.86013 11.6458L2.88388 10.6213C3.10363 10.4023 3.45987 10.4023 3.67963 10.6213C3.89863 10.841 3.89863 11.1973 3.67963 11.417L2.65513 12.4408C2.54562 12.551 2.40163 12.6058 2.25762 12.6058ZM5.07853 13.5001C4.93453 13.5001 4.79052 13.4453 4.68103 13.3351C4.46127 13.1153 4.46127 12.7598 4.68103 12.5401L5.70477 11.5156C5.92453 11.2966 6.28078 11.2966 6.50052 11.5156C6.71953 11.7353 6.71953 12.0916 6.50052 12.3113L5.47603 13.3351C5.36652 13.4453 5.22253 13.5001 5.07853 13.5001ZM5.2688 16.1761C5.3783 16.2863 5.5223 16.3411 5.6663 16.3411C5.8103 16.3411 5.9543 16.2863 6.0638 16.1761L7.0883 15.1523C7.3073 14.9326 7.3073 14.5763 7.0883 14.3566C6.86855 14.1376 6.5123 14.1376 6.29255 14.3566L5.2688 15.3811C5.04905 15.6008 5.04905 15.9563 5.2688 16.1761Z" fill="white"/>
</svg>
